# xmcd
#
# Track frame offsets: 
#        150
#        9803
#        23430
#        32400
#        48275
#        64725
#        75615
#        98505
#        108545
#        126688
#        151315
#
# Disc length: 2068 seconds
#
# Revision: 0
# Processed by: cddbd v1.5.2PL0 Copyright (c) Steve Scherf et al.
# Submitted via: ExactAudioCopy v0.95b3
#
DISCID=7608120b
DTITLE=Moby Grape  - Wow (1968)  
DYEAR=1900
DGENRE=
TTITLE0=The Place And The Time
TTITLE1=Murder In My Heart For The Judge
TTITLE2=Bitter Wind
TTITLE3=Can't Be So Bad
TTITLE4=He
TTITLE5=Motorcycle Irene
TTITLE6=Three-Four
TTITLE7=Funky-Tunk
TTITLE8=Rose Colored Eyes
TTITLE9=Miller's Blues
TTITLE10=Naked, If I Want To
EXTD=
EXTT0=
EXTT1=
EXTT2=
EXTT3=
EXTT4=
EXTT5=
EXTT6=
EXTT7=
EXTT8=
EXTT9=
EXTT10=
PLAYORDER=
